<svg width="4" height="15" viewBox="0 0 4 15" fill="none" xmlns="http://www.w3.org/2000/svg">
<path d="M1.66665 8.3335C2.12688 8.3335 2.49998 7.9604 2.49998 7.50016C2.49998 7.03993 2.12688 6.66683 1.66665 6.66683C1.20641 6.66683 0.833313 7.03993 0.833313 7.50016C0.833313 7.9604 1.20641 8.3335 1.66665 8.3335Z" stroke="#98A2B3" stroke-width="1.66667" stroke-linecap="round" stroke-linejoin="round"/>
<path d="M1.66665 2.50016C2.12688 2.50016 2.49998 2.12707 2.49998 1.66683C2.49998 1.20659 2.12688 0.833496 1.66665 0.833496C1.20641 0.833496 0.833313 1.20659 0.833313 1.66683C0.833313 2.12707 1.20641 2.50016 1.66665 2.50016Z" stroke="#98A2B3" stroke-width="1.66667" stroke-linecap="round" stroke-linejoin="round"/>
<path d="M1.66665 14.1668C2.12688 14.1668 2.49998 13.7937 2.49998 13.3335C2.49998 12.8733 2.12688 12.5002 1.66665 12.5002C1.20641 12.5002 0.833313 12.8733 0.833313 13.3335C0.833313 13.7937 1.20641 14.1668 1.66665 14.1668Z" stroke="#98A2B3" stroke-width="1.66667" stroke-linecap="round" stroke-linejoin="round"/>
</svg>
