<svg width="47" height="9" viewBox="0 0 47 9" fill="none" xmlns="http://www.w3.org/2000/svg">
<path d="M5.86691e-05 3.82064V2.38289H4.57956V3.82064H5.86691e-05ZM6.70831 3.82064V2.38289H11.2878V3.82064H6.70831ZM14.1887 2.26308C13.9757 2.26308 13.7804 2.21426 13.6029 2.11664C13.4254 2.01014 13.2834 1.86814 13.1769 1.69064C13.0704 1.51314 13.0172 1.32233 13.0172 1.1182C13.0172 0.914076 13.0704 0.727701 13.1769 0.559076C13.2834 0.390451 13.4254 0.257326 13.6029 0.159701C13.7804 0.0532008 13.9757 -4.93042e-05 14.1887 -4.93042e-05C14.4017 -4.93042e-05 14.5969 0.0532008 14.7744 0.159701C14.9519 0.257326 15.0939 0.390451 15.2004 0.559076C15.3069 0.727701 15.3602 0.914076 15.3602 1.1182C15.3602 1.32233 15.3069 1.51314 15.2004 1.69064C15.0939 1.86814 14.9519 2.01014 14.7744 2.11664C14.5969 2.21426 14.4017 2.26308 14.1887 2.26308ZM14.1887 7.12214C13.9757 7.12214 13.7804 7.07333 13.6029 6.9757C13.4254 6.8692 13.2834 6.7272 13.1769 6.5497C13.0704 6.3722 13.0172 6.18139 13.0172 5.97726C13.0172 5.77314 13.0704 5.58676 13.1769 5.41814C13.2834 5.24951 13.4254 5.11639 13.6029 5.01876C13.7804 4.91226 13.9757 4.85901 14.1887 4.85901C14.4017 4.85901 14.5969 4.91226 14.7744 5.01876C14.9519 5.11639 15.0939 5.24951 15.2004 5.41814C15.3069 5.58676 15.3602 5.77314 15.3602 5.97726C15.3602 6.18139 15.3069 6.3722 15.2004 6.5497C15.0939 6.7272 14.9519 6.8692 14.7744 6.9757C14.5969 7.07333 14.4017 7.12214 14.1887 7.12214ZM17.0957 3.82064V2.38289H21.6752V3.82064H17.0957ZM23.804 3.82064V2.38289H28.3835V3.82064H23.804ZM33.1783 8.59983V7.56145H39.9012V8.59983H33.1783ZM39.8996 8.59983V7.56145H46.6224V8.59983H39.8996Z" fill="white"/>
</svg>
