<svg width="15" height="17" viewBox="0 0 15 17" fill="none" xmlns="http://www.w3.org/2000/svg">
<path d="M12.0711 2.07107C10.745 0.744985 8.94643 -1.39725e-08 7.07107 0C5.1957 1.39725e-08 3.39715 0.744985 2.07107 2.07107C0.744985 3.39715 1.39725e-08 5.1957 0 7.07107C-1.39725e-08 8.94643 0.744985 10.745 2.07107 12.0711L6.46273 16.4711C6.5402 16.5492 6.63237 16.6112 6.73392 16.6535C6.83547 16.6958 6.94439 16.7176 7.0544 16.7176C7.16441 16.7176 7.27333 16.6958 7.37488 16.6535C7.47643 16.6112 7.5686 16.5492 7.64607 16.4711L12.0711 12.0294C13.3916 10.7088 14.1335 8.91778 14.1335 7.05023C14.1335 5.18269 13.3916 3.39163 12.0711 2.07107ZM10.8794 10.8377L7.07107 14.6627L3.26273 10.8377C2.51035 10.0847 1.99813 9.12544 1.79081 8.08131C1.5835 7.03718 1.69039 5.95502 2.09799 4.97163C2.50558 3.98825 3.19558 3.14778 4.08076 2.55647C4.96594 1.96515 6.00655 1.64955 7.07107 1.64955C8.13558 1.64955 9.1762 1.96515 10.0614 2.55647C10.9466 3.14778 11.6365 3.98825 12.0441 4.97163C12.4517 5.95502 12.5586 7.03718 12.3513 8.08131C12.144 9.12544 11.6318 10.0847 10.8794 10.8377ZM4.57107 4.51273C3.89833 5.18754 3.52056 6.10154 3.52056 7.0544C3.52056 8.00726 3.89833 8.92126 4.57107 9.59607C5.07087 10.0967 5.70739 10.4386 6.40078 10.5789C7.09416 10.7192 7.81353 10.6516 8.46863 10.3845C9.12373 10.1175 9.68538 9.66297 10.0831 9.07794C10.4809 8.49292 10.697 7.80346 10.7044 7.09607C10.7082 6.62374 10.6172 6.15545 10.4368 5.71889C10.2565 5.28233 9.99042 4.88636 9.6544 4.5544C9.32413 4.21655 8.9303 3.94735 8.49559 3.76229C8.06087 3.57723 7.59385 3.47996 7.1214 3.47609C6.64895 3.47222 6.1804 3.56182 5.74271 3.73972C5.30502 3.91763 4.90683 4.18034 4.57107 4.51273ZM8.4794 8.41273C8.1636 8.73335 7.74624 8.93432 7.29867 8.98128C6.8511 9.02824 6.40112 8.91827 6.02566 8.67017C5.65019 8.42208 5.37256 8.05127 5.24024 7.62114C5.10791 7.191 5.12911 6.72826 5.3002 6.31203C5.47129 5.89579 5.78165 5.55191 6.17822 5.33918C6.57479 5.12645 7.03294 5.05807 7.47435 5.14575C7.91575 5.23342 8.31299 5.4717 8.59816 5.81984C8.88332 6.16799 9.0387 6.60438 9.03773 7.0544C9.02561 7.56879 8.80981 8.05734 8.43773 8.41273H8.4794Z" fill="#88889D"/>
</svg>
